<svg width="24" height="24" viewBox="0 0 24 24" fill="none" xmlns="http://www.w3.org/2000/svg">
<path d="M22 21H2M2 10L6.063 6.75M22 10L13.874 3.5C13.3421 3.07449 12.6812 2.84267 12 2.84267C11.3188 2.84267 10.6579 3.07449 10.126 3.5L9.344 4.125M15.5 4.5V2.5C15.5 2.36739 15.5527 2.24021 15.6464 2.14645C15.7402 2.05268 15.8674 2 16 2H18.5C18.6326 2 18.7598 2.05268 18.8536 2.14645C18.9473 2.24021 19 2.36739 19 2.5V7.5M4 21V8.5M20 8.5V12.5M20 21V16.5" stroke="#F4F4F4" stroke-opacity="0.98" stroke-width="1.5" stroke-linecap="round"/>
<path d="M15 21V16C15 14.586 15 13.879 14.56 13.44C14.122 13 13.415 13 12 13C10.585 13 9.879 13 9.44 13.44M9 21V16" stroke="#F4F4F4" stroke-opacity="0.98" stroke-width="1.5" stroke-linecap="round" stroke-linejoin="round"/>
<path d="M14 8.5C14 9.03043 13.7893 9.53914 13.4142 9.91421C13.0391 10.2893 12.5304 10.5 12 10.5C11.4696 10.5 10.9609 10.2893 10.5858 9.91421C10.2107 9.53914 10 9.03043 10 8.5C10 7.96957 10.2107 7.46086 10.5858 7.08579C10.9609 6.71071 11.4696 6.5 12 6.5C12.5304 6.5 13.0391 6.71071 13.4142 7.08579C13.7893 7.46086 14 7.96957 14 8.5Z" stroke="#F4F4F4" stroke-opacity="0.98" stroke-width="1.5"/>
</svg>
