<svg width="24" height="24" viewBox="0 0 24 24" fill="none" xmlns="http://www.w3.org/2000/svg">
<path d="M4 12C4 8.229 4 6.343 5.172 5.172C6.344 4.001 8.229 4 12 4C15.771 4 17.657 4 18.828 5.172C19.999 6.344 20 8.229 20 12C20 15.771 20 17.657 18.828 18.828C17.656 19.999 15.771 20 12 20C8.229 20 6.343 20 5.172 18.828C4.001 17.656 4 15.771 4 12Z" stroke="#F4F4F4" stroke-linecap="round" stroke-linejoin="round"/>
<path d="M10.125 15V9M12 9V7.5M12 16.5V15M10.125 12H13.875M13.875 12C14.496 12 15 12.504 15 13.125V13.875C15 14.496 14.496 15 13.875 15H9M13.875 12C14.496 12 15 11.496 15 10.875V10.125C15 9.504 14.496 9 13.875 9H9M8 2V4M16 2V4M12 2V4M8 20V22M12 20V22M16 20V22M22 16H20M4 8H2M4 16H2M4 12H2M22 8H20M22 12H20" stroke="#F4F4F4" stroke-linecap="round" stroke-linejoin="round"/>
</svg>
