<svg width="24" height="24" viewBox="0 0 24 24" fill="none" xmlns="http://www.w3.org/2000/svg">
<path d="M12 1.07812C5.973 1.07812 1.07812 5.973 1.07812 12C1.07812 18.027 5.973 22.9219 12 22.9219C18.027 22.9219 22.9219 18.027 22.9219 12C22.9219 5.973 18.027 1.07812 12 1.07812ZM12 1.92188C17.571 1.92188 22.0781 6.429 22.0781 12C22.0781 17.571 17.571 22.0781 12 22.0781C6.429 22.0781 1.92188 17.571 1.92188 12C1.92188 6.429 6.429 1.92188 12 1.92188ZM7.51087 4.41469C6.55144 4.41952 5.12728 5.81517 4.10798 7.83497C2.94314 10.1434 2.74833 12.3929 3.67284 12.8594C4.59736 13.3259 4.83516 11.0646 6 8.7562C7.16484 6.44775 8.81559 4.96645 7.89112 4.49995C7.77553 4.44164 7.64794 4.41398 7.51087 4.41469ZM15.1463 6.44733C13.914 6.44734 12.7322 6.95334 11.8609 7.85402C10.9895 8.75469 10.5 9.97626 10.5 11.25C10.5 11.8807 10.6202 12.5052 10.8537 13.0879C11.0872 13.6706 11.4294 14.2 11.8609 14.646C12.2923 15.092 12.8046 15.4457 13.3683 15.6871C13.932 15.9284 14.5362 16.0527 15.1464 16.0527C15.7566 16.0527 16.3608 15.9284 16.9245 15.6871C17.4882 15.4457 18.0004 15.092 18.4319 14.646C18.8634 14.2 19.2056 13.6706 19.4391 13.0879C19.6726 12.5052 19.7928 11.8807 19.7928 11.25C19.7928 10.6193 19.6726 9.99479 19.4391 9.4121C19.2056 8.82941 18.8634 8.29997 18.4319 7.854C18.0004 7.40803 17.4882 7.05427 16.9245 6.81291C16.3608 6.57155 15.7565 6.44733 15.1463 6.44733ZM15.5363 8.55938C15.8443 8.55453 16.1115 8.61444 16.3377 8.73909C16.6667 8.92034 16.8685 9.21242 16.9429 9.61533C16.996 9.90345 16.959 10.1628 16.8316 10.3935C16.7066 10.6236 16.5055 10.8016 16.2285 10.9273C16.5712 10.9431 16.8543 11.0456 17.0777 11.2348C17.3034 11.4235 17.446 11.6788 17.5054 12.0007C17.5956 12.4891 17.5152 12.8915 17.264 13.2079C17.0151 13.5238 16.6127 13.7331 16.0568 13.8358C15.5009 13.9384 15.0492 13.8868 14.7016 13.681C14.3563 13.4748 14.1385 13.1275 14.0483 12.6391C13.9888 12.3172 14.0308 12.0278 14.1743 11.771C14.3178 11.5141 14.5467 11.3171 14.8611 11.1799C14.5552 11.1618 14.3016 11.0678 14.1003 10.8978C13.9012 10.7275 13.775 10.4982 13.7219 10.2101C13.6475 9.80723 13.7317 9.46236 13.9743 9.17545C14.2192 8.8882 14.5915 8.69845 15.0911 8.6062C15.2479 8.57723 15.3964 8.56159 15.5363 8.55938ZM15.4258 9.12094C15.347 9.12319 15.2685 9.13165 15.191 9.14625C14.8961 9.20075 14.68 9.31631 14.5427 9.49294C14.4077 9.66919 14.3643 9.88784 14.4125 10.1489C14.4607 10.41 14.5793 10.5987 14.7684 10.7151C14.9597 10.831 15.2028 10.8618 15.4976 10.8074C15.7902 10.7533 16.0052 10.638 16.1424 10.4614C16.282 10.2843 16.3277 10.0652 16.2795 9.80409C16.2312 9.543 16.1103 9.35472 15.9168 9.23925C15.7972 9.16675 15.6578 9.12747 15.4987 9.12141C15.4748 9.1205 15.4506 9.12034 15.4258 9.12094ZM15.8867 11.3169C15.7954 11.3163 15.6988 11.3254 15.5968 11.3442C15.2727 11.404 15.0333 11.5378 14.8784 11.7457C14.7259 11.953 14.6777 12.2087 14.7338 12.5125C14.7898 12.8164 14.9262 13.038 15.1427 13.1772C15.3616 13.3159 15.633 13.3554 15.9571 13.2956C16.2812 13.2357 16.5207 13.1018 16.6755 12.894C16.8299 12.684 16.8792 12.4282 16.8235 12.1266C16.7675 11.8228 16.63 11.6015 16.4112 11.4626C16.2623 11.3669 16.0875 11.3183 15.8867 11.3169Z" fill="#929292"/>
</svg>
