<svg width="24" height="24" viewBox="0 0 24 24" fill="none" xmlns="http://www.w3.org/2000/svg">
<g clip-path="url(#clip0_1025_8669)">
<path d="M12.2039 0.418306L11.1578 2.81156C9.15975 3.02109 7.35309 3.87946 5.95284 5.17218L5.17284 4.39218L4.55343 5.01168L5.33831 5.79656C4.11562 7.16376 3.29995 8.90212 3.08282 10.8203L0.835449 11.8026L3.07218 12.7801C3.27304 14.7503 4.10437 16.5355 5.36137 17.9303L4.55348 18.7383L5.17289 19.3577L5.9782 18.5524C7.38895 19.8449 9.20798 20.6985 11.2179 20.8958L12.2039 23.1516L13.1987 20.8755C15.0953 20.6491 16.8135 19.8371 18.1676 18.6261L18.8993 19.3578L19.5187 18.7383L18.792 18.0115C20.0729 16.624 20.9273 14.8375 21.1467 12.8611L23.5686 11.8026L21.1354 10.7391C20.9001 8.81474 20.0618 7.07502 18.8156 5.71485L19.5187 5.01173L18.8994 4.39218L18.1937 5.09793C16.85 3.88701 15.1439 3.07115 13.2593 2.8334L12.2039 0.418306ZM11.1983 3.68793L12.2039 5.98846L13.2004 3.70846C14.8702 3.92868 16.3809 4.64896 17.577 5.71452L16.7022 6.5894C16.9231 6.78079 17.132 6.98568 17.3276 7.2029L18.1997 6.33079C19.3035 7.54738 20.0465 9.09745 20.262 10.8132L17.9986 11.8025L20.273 12.7966C20.0711 14.5607 19.3124 16.1536 18.1761 17.3955L17.3581 16.5774C17.1638 16.7958 16.9562 17.002 16.7364 17.1947L17.5511 18.0094C16.372 19.0507 14.891 19.7584 13.2546 19.9852L12.2039 17.5814L11.1437 20.007C9.40125 19.8026 7.82676 19.0545 6.59432 17.9363L7.39926 17.1314C7.18207 16.9358 6.97721 16.7269 6.78586 16.5059L5.97796 17.3137C4.89811 16.1016 4.17281 14.5664 3.96337 12.87L6.40556 11.8026L3.975 10.7403C4.19718 9.09182 4.90696 7.5997 5.9549 6.41315L6.81618 7.27443C7.00893 7.05459 7.21509 6.84712 7.43353 6.65287L6.56868 5.78802C7.81776 4.64521 9.42201 3.88443 11.1983 3.68793ZM12.2556 6.93168C9.49696 6.93168 7.27017 9.15843 7.27017 11.917C7.27017 14.6754 9.49701 16.9023 12.2556 16.9023C15.0141 16.9023 17.241 14.6754 17.241 11.9169C17.241 9.15834 15.0141 6.93168 12.2556 6.93168ZM12.1807 8.86457C12.4848 8.86446 12.7871 8.91013 13.0775 9.00004C12.6451 9.08568 12.2832 9.36627 12.0866 9.74648C10.9439 9.80484 10.0268 10.7579 10.0268 11.9144C10.0268 13.1082 11.0039 14.0853 12.1976 14.0853C13.3913 14.0853 14.3685 13.1082 14.3685 11.9144C14.3685 11.758 14.3514 11.6055 14.3196 11.4582C14.6062 11.1969 14.786 10.8204 14.786 10.4019C14.7859 10.379 14.7853 10.3561 14.7842 10.3335C15.0737 10.8084 15.2267 11.3539 15.2262 11.9101C15.2262 13.5869 13.8575 14.9556 12.1807 14.9556C10.5039 14.9556 9.13528 13.5869 9.13528 11.9101C9.13528 10.2333 10.5039 8.86457 12.1807 8.86457ZM11.9481 10.6435C12.0629 11.3178 12.6497 11.8313 13.3567 11.8313C13.4013 11.8313 13.4455 11.8289 13.4892 11.8249C13.4912 11.8544 13.4925 11.8843 13.4925 11.9144C13.4925 12.6347 12.9179 13.2093 12.1977 13.2093C11.4774 13.2093 10.903 12.6347 10.903 11.9144C10.903 11.2797 11.3492 10.7583 11.9481 10.6435Z" fill="#929292"/>
</g>
<defs>
<clipPath id="clip0_1025_8669">
<rect width="24" height="24" fill="white"/>
</clipPath>
</defs>
</svg>
