<svg width="35" height="33" viewBox="0 0 35 33" fill="none" xmlns="http://www.w3.org/2000/svg">
<g filter="url(#filter0_d_267_1099)">
<path d="M10.9016 5.70371C10.869 5.70342 10.8369 5.71113 10.808 5.72617C10.7792 5.74121 10.7546 5.76309 10.7365 5.78985C10.7183 5.8166 10.7072 5.84739 10.7041 5.87944C10.7011 5.91149 10.7061 5.94379 10.7188 5.97344L10.8319 6.23685L12.8318 10.8406C12.8454 10.8719 12.8671 10.8991 12.8947 10.9195C12.9224 10.9399 12.9549 10.9528 12.9892 10.9568C13.0235 10.9608 13.0582 10.9559 13.0899 10.9425C13.1216 10.9291 13.1492 10.9076 13.1699 10.8803L16.8612 6.01418C16.8831 5.98536 16.8964 5.95107 16.8997 5.91518C16.903 5.87929 16.8961 5.84321 16.8798 5.81098C16.8634 5.77875 16.8383 5.75164 16.8073 5.73269C16.7762 5.71375 16.7405 5.70371 16.7039 5.70371H10.9016ZM25.5553 6.96791L23.5269 11.6429C23.5141 11.6725 23.509 11.7046 23.5119 11.7366C23.5148 11.7685 23.5257 11.7993 23.5437 11.8261C23.5616 11.8528 23.5859 11.8748 23.6146 11.89C23.6432 11.9052 23.6752 11.9132 23.7077 11.9131H28.6707C28.7058 11.9132 28.7402 11.9039 28.7704 11.8864C28.8006 11.8689 28.8255 11.8437 28.8426 11.8135C28.8596 11.7832 28.8682 11.749 28.8673 11.7145C28.8665 11.6799 28.8563 11.6461 28.8378 11.6167L25.9027 6.9422C25.8838 6.91211 25.8568 6.88772 25.8248 6.87167C25.7928 6.85563 25.757 6.84855 25.7212 6.8512C25.6854 6.85385 25.651 6.86612 25.6217 6.8867C25.5925 6.90728 25.5695 6.93536 25.5553 6.96791ZM9.09725 6.94414L6.16317 11.6167C6.14469 11.6461 6.1345 11.6799 6.13366 11.7145C6.13282 11.749 6.14136 11.7832 6.1584 11.8135C6.17544 11.8437 6.20036 11.8689 6.23057 11.8864C6.26079 11.9039 6.2952 11.9132 6.33024 11.9131H11.2933C11.3258 11.9131 11.3578 11.9051 11.3864 11.8898C11.415 11.8746 11.4394 11.8526 11.4573 11.8257C11.4751 11.7989 11.486 11.7681 11.4888 11.7361C11.4917 11.7041 11.4865 11.672 11.4736 11.6425L9.44123 6.96985C9.42669 6.93811 9.40377 6.91082 9.37487 6.89084C9.34596 6.87086 9.31215 6.85893 9.27696 6.8563C9.24178 6.85367 9.20653 6.86044 9.17491 6.8759C9.14329 6.89135 9.11646 6.91493 9.09725 6.94414ZM24.2453 5.70371H18.0808C18.063 5.7036 18.0456 5.7084 18.0304 5.71758C18.0152 5.72675 18.003 5.73993 17.995 5.75563C17.987 5.77132 17.9837 5.78891 17.9853 5.8064C17.9869 5.82388 17.9934 5.84058 18.0042 5.85458L21.9313 11.0191C21.9414 11.0324 21.9548 11.0428 21.9702 11.0493C21.9856 11.0558 22.0024 11.0582 22.0191 11.0563C22.0357 11.0543 22.0516 11.048 22.065 11.0381C22.0784 11.0282 22.0889 11.0149 22.0955 10.9997L24.1632 6.23734L24.3303 5.83275C24.3362 5.81887 24.3386 5.80378 24.3373 5.78878C24.336 5.77378 24.331 5.75932 24.3228 5.74663C24.3146 5.73395 24.3034 5.72342 24.2901 5.71594C24.2769 5.70847 24.262 5.70427 24.2468 5.70371H24.2453ZM16.6646 25.8844L12.2702 13.5873C12.2572 13.5516 12.2334 13.5207 12.202 13.4989C12.1706 13.4771 12.1331 13.4654 12.0947 13.4655H6.18332C6.14907 13.4654 6.11549 13.4748 6.0864 13.4926C6.0573 13.5105 6.03386 13.536 6.01876 13.5663C6.00365 13.5967 5.99747 13.6306 6.00094 13.6642C6.0044 13.6979 6.01737 13.7299 6.03836 13.7566L16.6524 27.3305C16.6883 27.3764 16.7395 27.4083 16.797 27.4205C16.8545 27.4326 16.9145 27.4243 16.9664 27.3969C17.0185 27.3699 17.0591 27.3252 17.0806 27.271C17.1022 27.2169 17.1033 27.1569 17.0838 27.102L16.6646 25.8844ZM28.8167 13.4655H22.9053C22.8671 13.4655 22.8298 13.4772 22.7986 13.499C22.7675 13.5208 22.744 13.5517 22.7313 13.5873L17.9059 27.0811C17.8856 27.1378 17.8865 27.1997 17.9082 27.2558C17.93 27.3119 17.9714 27.3585 18.0248 27.3872C18.0783 27.4158 18.1403 27.4247 18.1997 27.4124C18.2592 27.4 18.3123 27.3672 18.3496 27.3198L28.9616 13.7566C28.9826 13.7299 28.9956 13.6979 28.9991 13.6642C29.0025 13.6306 28.9964 13.5967 28.9812 13.5663C28.9661 13.536 28.9427 13.5105 28.9136 13.4926C28.8845 13.4748 28.8509 13.4654 28.8167 13.4655ZM17.6572 7.98034L20.409 11.6027C20.4309 11.6315 20.4443 11.6658 20.4475 11.7017C20.4508 11.7376 20.4439 11.7736 20.4276 11.8059C20.4113 11.8381 20.3862 11.8652 20.3551 11.8842C20.3241 11.9031 20.2883 11.9131 20.2518 11.9131H14.7482C14.7117 11.9131 14.6759 11.9031 14.6449 11.8842C14.6138 11.8652 14.5887 11.8381 14.5724 11.8059C14.5561 11.7736 14.5492 11.7376 14.5525 11.7017C14.5557 11.6658 14.5691 11.6315 14.591 11.6027L17.3428 7.98034C17.3611 7.95624 17.3848 7.93668 17.4121 7.92321C17.4394 7.90974 17.4695 7.90272 17.5 7.90272C17.5305 7.90272 17.5606 7.90974 17.5879 7.92321C17.6152 7.93668 17.6389 7.95624 17.6572 7.98034ZM17.3133 23.0338L13.9866 13.7241C13.9761 13.6948 13.9729 13.6635 13.9773 13.6328C13.9816 13.6021 13.9933 13.5728 14.0115 13.5475C14.0296 13.5222 14.0536 13.5015 14.0815 13.4872C14.1094 13.473 14.1404 13.4655 14.1718 13.4655H20.8282C20.8596 13.4655 20.8906 13.473 20.9185 13.4872C20.9464 13.5015 20.9704 13.5222 20.9885 13.5475C21.0067 13.5728 21.0184 13.6021 21.0227 13.6328C21.0271 13.6635 21.0239 13.6948 21.0134 13.7241L17.6853 23.0338C17.6717 23.0716 17.6466 23.1044 17.6134 23.1275C17.5802 23.1506 17.5406 23.163 17.5 23.163C17.4594 23.163 17.4198 23.1506 17.3866 23.1275C17.3534 23.1044 17.3283 23.0716 17.3147 23.0338H17.3133Z" fill="white"/>
</g>
<defs>
<filter id="filter0_d_267_1099" x="0.888889" y="0.592594" width="33.2222" height="31.9444" filterUnits="userSpaceOnUse" color-interpolation-filters="sRGB">
<feFlood flood-opacity="0" result="BackgroundImageFix"/>
<feColorMatrix in="SourceAlpha" type="matrix" values="0 0 0 0 0 0 0 0 0 0 0 0 0 0 0 0 0 0 127 0" result="hardAlpha"/>
<feOffset/>
<feGaussianBlur stdDeviation="2.55556"/>
<feComposite in2="hardAlpha" operator="out"/>
<feColorMatrix type="matrix" values="0 0 0 0 1 0 0 0 0 1 0 0 0 0 1 0 0 0 0.33 0"/>
<feBlend mode="normal" in2="BackgroundImageFix" result="effect1_dropShadow_267_1099"/>
<feBlend mode="normal" in="SourceGraphic" in2="effect1_dropShadow_267_1099" result="shape"/>
</filter>
</defs>
</svg>
