<svg width="15" height="16" viewBox="0 0 15 16" fill="none" xmlns="http://www.w3.org/2000/svg">
<path d="M7.59423 13.7165C7.69142 13.7142 7.78811 13.7311 7.87878 13.7662C7.96944 13.8013 8.05231 13.8539 8.12265 13.921C8.19299 13.9881 8.24942 14.0684 8.28872 14.1573C8.32802 14.2462 8.34943 14.342 8.35171 14.4392C8.354 14.5364 8.33712 14.6331 8.30203 14.7238C8.26695 14.8144 8.21435 14.8973 8.14724 14.9676C8.08014 15.038 7.99983 15.0944 7.91091 15.1337C7.822 15.173 7.72621 15.1944 7.62902 15.1967L7.45288 15.1982L7.27673 15.196C7.17954 15.1937 7.08376 15.1723 6.99484 15.133C6.90592 15.0937 6.82562 15.0372 6.75851 14.9669C6.6914 14.8966 6.6388 14.8137 6.60372 14.723C6.56864 14.6324 6.55175 14.5357 6.55404 14.4385C6.55632 14.3413 6.57773 14.2455 6.61703 14.1566C6.65633 14.0677 6.71276 13.9874 6.7831 13.9202C6.85344 13.8531 6.93631 13.8005 7.02698 13.7655C7.11764 13.7304 7.21433 13.7135 7.31152 13.7158L7.45288 13.718L7.59423 13.7165ZM10.5339 12.8543C10.7014 12.752 10.9027 12.7203 11.0936 12.7664C11.2844 12.8125 11.4491 12.9325 11.5515 13.1C11.6538 13.2676 11.6855 13.4689 11.6394 13.6597C11.5933 13.8506 11.4733 14.0153 11.3058 14.1176C11.2055 14.1788 11.1039 14.2375 11.0009 14.2938C10.9156 14.3404 10.8219 14.3698 10.7253 14.3803C10.6286 14.3908 10.5309 14.3821 10.4376 14.3548C10.2492 14.2996 10.0904 14.1718 9.99619 13.9996C9.90197 13.8274 9.88004 13.6248 9.93521 13.4363C9.99038 13.2479 10.1181 13.0891 10.2904 12.9949C10.3729 12.95 10.4536 12.9031 10.5339 12.8543ZM3.35427 13.1C3.40494 13.0171 3.47146 12.9449 3.55003 12.8876C3.6286 12.8304 3.71767 12.7892 3.81218 12.7663C3.90668 12.7435 4.00475 12.7396 4.10078 12.7546C4.19682 12.7697 4.28894 12.8036 4.37189 12.8543C4.45182 12.9037 4.53323 12.9505 4.61612 12.9949C4.78836 13.0892 4.91608 13.2481 4.97118 13.4366C5.02628 13.6251 5.00425 13.8277 4.90993 14C4.81562 14.1722 4.65675 14.2999 4.46826 14.355C4.27978 14.4101 4.07713 14.3881 3.90489 14.2938C3.80187 14.2375 3.7002 14.1788 3.59998 14.1176C3.51701 14.067 3.44484 14.0005 3.38759 13.9219C3.33033 13.8433 3.28912 13.7542 3.2663 13.6597C3.24349 13.5652 3.23951 13.4672 3.2546 13.3711C3.2697 13.2751 3.30356 13.183 3.35427 13.1ZM7.45288 3.35676C8.63058 3.35676 9.76004 3.8246 10.5928 4.65736C11.4256 5.49013 11.8934 6.61959 11.8934 7.79729C11.8934 8.97499 11.4256 10.1045 10.5928 10.9372C9.76004 11.77 8.63058 12.2378 7.45288 12.2378C6.27517 12.2378 5.14571 11.77 4.31295 10.9372C3.48019 10.1045 3.01235 8.97499 3.01235 7.79729C3.01235 6.61959 3.48019 5.49013 4.31295 4.65736C5.14571 3.8246 6.27517 3.35676 7.45288 3.35676ZM12.6505 10.6348C12.7447 10.4626 12.9035 10.3348 13.0919 10.2796C13.2803 10.2245 13.4829 10.2464 13.6552 10.3406C13.8274 10.4348 13.9552 10.5936 14.0104 10.782C14.0655 10.9704 14.0436 11.173 13.9494 11.3453C13.8931 11.4489 13.8344 11.5505 13.7732 11.6502C13.7225 11.7331 13.656 11.8053 13.5774 11.8625C13.4989 11.9198 13.4098 11.961 13.3153 11.9838C13.1245 12.0299 12.9231 11.9983 12.7556 11.8959C12.5881 11.7935 12.4681 11.6288 12.422 11.438C12.3759 11.2471 12.4075 11.0458 12.5099 10.8783C12.5592 10.7983 12.6061 10.7177 12.6505 10.6348ZM1.25094 10.341C1.33621 10.2942 1.42986 10.2648 1.52653 10.2542C1.62321 10.2437 1.72101 10.2523 1.81435 10.2796C1.90768 10.3069 1.99473 10.3523 2.07051 10.4132C2.14629 10.4742 2.20931 10.5495 2.25598 10.6348C2.3009 10.7173 2.34779 10.7987 2.39659 10.879C2.44837 10.962 2.48319 11.0544 2.49903 11.1509C2.51488 11.2474 2.51144 11.3461 2.48891 11.4413C2.46638 11.5365 2.42521 11.6262 2.36778 11.7054C2.31035 11.7846 2.2378 11.8516 2.15433 11.9025C2.07085 11.9535 1.9781 11.9874 1.88144 12.0023C1.78477 12.0172 1.68612 12.0128 1.59117 11.9893C1.49623 11.9658 1.40687 11.9238 1.32828 11.8656C1.24968 11.8074 1.1834 11.7342 1.13326 11.6502C1.07214 11.55 1.01341 11.4483 0.957122 11.3453C0.862953 11.1731 0.841005 10.9706 0.896102 10.7823C0.951199 10.594 1.07883 10.4352 1.25094 10.341ZM7.45288 6.31712C7.06031 6.31712 6.68382 6.47306 6.40623 6.75065C6.12865 7.02824 5.9727 7.40473 5.9727 7.79729C5.9727 8.18986 6.12865 8.56635 6.40623 8.84394C6.68382 9.12152 7.06031 9.27747 7.45288 9.27747C7.84544 9.27747 8.22193 9.12152 8.49952 8.84394C8.77711 8.56635 8.93305 8.18986 8.93305 7.79729C8.93305 7.40473 8.77711 7.02824 8.49952 6.75065C8.22193 6.47306 7.84544 6.31712 7.45288 6.31712ZM0.811325 6.89809C0.908523 6.90039 1.00431 6.92182 1.09323 6.96116C1.18214 7.0005 1.26243 7.05697 1.32951 7.12735C1.39659 7.19773 1.44914 7.28064 1.48417 7.37133C1.5192 7.46203 1.53601 7.55874 1.53365 7.65594L1.53291 7.86834L1.53365 7.93865C1.53826 8.13493 1.46471 8.32501 1.32918 8.46706C1.19365 8.60912 1.00724 8.69152 0.810955 8.69613C0.614671 8.70074 0.424595 8.62719 0.282539 8.49166C0.140484 8.35613 0.0580873 8.16972 0.0534746 7.97343L0.0527344 7.70922L0.0542146 7.62041C0.0588709 7.42424 0.141242 7.23795 0.283218 7.1025C0.425194 6.96704 0.615152 6.89352 0.811325 6.89809ZM14.0944 6.89809C14.1916 6.89582 14.2883 6.91274 14.379 6.94785C14.4696 6.98297 14.5525 7.03561 14.6228 7.10276C14.6931 7.1699 14.7495 7.25025 14.7887 7.3392C14.828 7.42814 14.8493 7.52395 14.8515 7.62115L14.8538 7.79729L14.8515 7.97343C14.8493 8.07062 14.8278 8.16641 14.7885 8.25533C14.7492 8.34425 14.6928 8.42455 14.6225 8.49166C14.5521 8.55877 14.4693 8.61137 14.3786 8.64645C14.2879 8.68153 14.1912 8.69841 14.0941 8.69613C13.9969 8.69385 13.9011 8.67244 13.8122 8.63314C13.7232 8.59383 13.6429 8.5374 13.5758 8.46706C13.5087 8.39673 13.4561 8.31386 13.421 8.22319C13.386 8.13253 13.3691 8.03584 13.3714 7.93865L13.3736 7.79729L13.3721 7.65594C13.3697 7.55874 13.3866 7.46203 13.4216 7.37133C13.4566 7.28064 13.5092 7.19773 13.5762 7.12735C13.6433 7.05697 13.7236 7.0005 13.8125 6.96116C13.9014 6.92182 13.9972 6.90039 14.0944 6.89809ZM12.7549 3.69868C12.8378 3.64798 12.9299 3.61411 13.026 3.59902C13.122 3.58393 13.2201 3.5879 13.3146 3.61072C13.4091 3.63354 13.4982 3.67475 13.5767 3.732C13.6553 3.78926 13.7218 3.86143 13.7725 3.94439C13.8342 4.04455 13.8931 4.14619 13.9494 4.24931C14.0436 4.42155 14.0655 4.62416 14.0104 4.81257C13.9552 5.00098 13.8274 5.15976 13.6552 5.25398C13.4829 5.3482 13.2803 5.37013 13.0919 5.31496C12.9035 5.25979 12.7447 5.13203 12.6505 4.95979C12.6056 4.87728 12.5587 4.79585 12.5099 4.71557C12.4077 4.54811 12.3762 4.34695 12.4223 4.15627C12.4684 3.9656 12.5883 3.80101 12.7556 3.69868H12.7549ZM1.13252 3.94439C1.23488 3.77687 1.3996 3.65686 1.59045 3.61078C1.78129 3.5647 1.98262 3.59632 2.15014 3.69868C2.31767 3.80105 2.43768 3.96577 2.48376 4.15661C2.52983 4.34745 2.49822 4.54878 2.39585 4.71631C2.34651 4.79624 2.29964 4.87765 2.25524 4.96053C2.16092 5.13277 2.00205 5.26049 1.81357 5.31559C1.62509 5.37069 1.42244 5.34866 1.2502 5.25435C1.07796 5.16004 0.95024 5.00116 0.895139 4.81268C0.840038 4.6242 0.862068 4.42155 0.956382 4.24931C1.01312 4.1457 1.07184 4.04406 1.13252 3.94439ZM9.99656 1.59461C10.0908 1.42251 10.2495 1.29488 10.4379 1.23978C10.6262 1.18468 10.8287 1.20663 11.0009 1.3008C11.1045 1.35754 11.2061 1.41625 11.3058 1.47694C11.4733 1.5793 11.5933 1.74402 11.6394 1.93486C11.6855 2.1257 11.6538 2.32703 11.5515 2.49456C11.4491 2.66209 11.2844 2.78209 11.0936 2.82817C10.9027 2.87425 10.7014 2.84263 10.5339 2.74027C10.4536 2.69147 10.3721 2.64458 10.2896 2.59965C10.2044 2.55292 10.1292 2.48985 10.0683 2.41405C10.0074 2.33824 9.96209 2.25119 9.93487 2.15785C9.90766 2.06452 9.8991 1.96674 9.90968 1.8701C9.92027 1.77345 9.94979 1.67984 9.99656 1.59461ZM3.90489 1.3008C4.07713 1.20658 4.27974 1.18465 4.46816 1.23982C4.65657 1.29499 4.81535 1.42275 4.90956 1.59498C5.00378 1.76722 5.02571 1.96984 4.97054 2.15825C4.91537 2.34666 4.78762 2.50544 4.61538 2.59965C4.53286 2.64458 4.45143 2.69147 4.37115 2.74027C4.20384 2.83668 4.00548 2.86388 3.81839 2.81607C3.6313 2.76826 3.47031 2.64923 3.36977 2.48437C3.26924 2.3195 3.23711 2.12188 3.28026 1.93366C3.32341 1.74544 3.43841 1.58155 3.60072 1.47694C3.70088 1.41625 3.80177 1.35754 3.90489 1.3008ZM7.45288 0.396412L7.62902 0.398632C7.8253 0.403245 8.01171 0.485642 8.14724 0.627697C8.28278 0.769752 8.35633 0.959829 8.35171 1.15611C8.3471 1.3524 8.2647 1.53881 8.12265 1.67434C7.98059 1.80987 7.79052 1.88342 7.59423 1.87881L7.45288 1.87659L7.31152 1.87807C7.11524 1.88268 6.92516 1.80913 6.7831 1.6736C6.64105 1.53807 6.55865 1.35166 6.55404 1.15537C6.54943 0.959089 6.62298 0.769012 6.75851 0.626957C6.89404 0.484902 7.08045 0.402505 7.27673 0.397892L7.45288 0.396412Z" fill="white" fill-opacity="0.64"/>
</svg>
