<svg width="15" height="17" viewBox="0 0 15 17" fill="none" xmlns="http://www.w3.org/2000/svg">
<path d="M10.5 0C10.776 0 11 0.222 11 0.497C11 0.96 11.073 1.716 11.472 2.343C11.847 2.931 12.555 3.479 14 3.479C14.276 3.479 14.5 3.701 14.5 3.976C14.4992 4.10809 14.4462 4.2345 14.3525 4.32762C14.2588 4.42074 14.1321 4.473 14 4.473C13.631 4.473 12.86 4.696 12.18 5.215C11.517 5.72 11 6.456 11 7.455C10.9989 7.58691 10.9458 7.71307 10.8521 7.80597C10.7585 7.89888 10.6319 7.951 10.5 7.951C10.3679 7.951 10.2412 7.89874 10.1475 7.80562C10.0538 7.7125 10.0008 7.58609 10 7.454C10 6.954 9.845 6.193 9.394 5.57C8.962 4.974 8.237 4.473 7 4.473C6.86791 4.473 6.74119 4.42074 6.6475 4.32762C6.55382 4.2345 6.50079 4.10809 6.5 3.976C6.5 3.701 6.724 3.479 7 3.479C7.512 3.479 8.255 3.469 8.873 3.112C9.437 2.785 10 2.1 10 0.497C10 0.222 10.224 0 10.5 0ZM2.145 11.166L1.213 14.562C1.043 15.182 1.29 15.907 1.953 16.202C3.591 16.929 6.603 17.553 9.923 16.211C10.633 15.923 10.944 15.147 10.737 14.461L9.762 11.232C8.66183 12.0096 7.34723 12.4261 6 12.424C4.61373 12.4265 3.26297 11.9857 2.145 11.166ZM8.925 1.333C8.879 1.551 8.818 1.713 8.757 1.832C8.67297 2.00817 8.53775 2.1549 8.369 2.253C8.015 2.458 7.538 2.485 7 2.485C6.172 2.485 5.5 3.152 5.5 3.975C5.5 4.799 6.172 5.466 7 5.466C7.911 5.466 8.336 5.81 8.583 6.151C8.885 6.568 9 7.113 9 7.454C9.00046 7.65999 9.04348 7.86366 9.12637 8.05224C9.20926 8.24081 9.33022 8.41023 9.48168 8.54985C9.63313 8.68947 9.8118 8.79629 10.0065 8.8636C10.2012 8.93091 10.4077 8.95726 10.613 8.941C10.1119 9.70695 9.4276 10.3357 8.62208 10.7704C7.81655 11.205 6.9153 11.4317 6 11.43C2.962 11.43 0.5 8.982 0.5 5.963C0.5 2.944 2.962 0.497 6 0.497C7.075 0.497 8.077 0.803 8.924 1.333" fill="white"/>
</svg>
