<svg width="24" height="24" viewBox="0 0 24 24" fill="none" xmlns="http://www.w3.org/2000/svg">
<path d="M12 8.75C11.138 8.75 10.3114 9.09241 9.7019 9.7019C9.09241 10.3114 8.75 11.138 8.75 12C8.75 12.862 9.09241 13.6886 9.7019 14.2981C10.3114 14.9076 11.138 15.25 12 15.25C12.862 15.25 13.6886 14.9076 14.2981 14.2981C14.9076 13.6886 15.25 12.862 15.25 12C15.25 11.138 14.9076 10.3114 14.2981 9.7019C13.6886 9.09241 12.862 8.75 12 8.75Z" fill="white"/>
<path fill-rule="evenodd" clip-rule="evenodd" d="M6.77061 3.08202C10.2466 2.69695 13.7546 2.69695 17.2306 3.08202C19.1296 3.29402 20.6606 4.78902 20.8836 6.69502C21.2955 10.2197 21.2955 13.7803 20.8836 17.305C20.6606 19.211 19.1296 20.706 17.2316 20.919C13.7552 21.3042 10.247 21.3042 6.77061 20.919C4.87161 20.706 3.34061 19.211 3.11761 17.306C2.70559 13.781 2.70559 10.22 3.11761 6.69502C3.34061 4.78902 4.87161 3.29402 6.77061 3.08202ZM17.0006 6.00002C16.7354 6.00002 16.481 6.10537 16.2935 6.29291C16.106 6.48045 16.0006 6.7348 16.0006 7.00002C16.0006 7.26523 16.106 7.51959 16.2935 7.70712C16.481 7.89466 16.7354 8.00002 17.0006 8.00002C17.2658 8.00002 17.5202 7.89466 17.7077 7.70712C17.8953 7.51959 18.0006 7.26523 18.0006 7.00002C18.0006 6.7348 17.8953 6.48045 17.7077 6.29291C17.5202 6.10537 17.2658 6.00002 17.0006 6.00002ZM7.25061 12C7.25061 10.7402 7.75105 9.53206 8.64185 8.64126C9.53265 7.75046 10.7408 7.25002 12.0006 7.25002C13.2604 7.25002 14.4686 7.75046 15.3594 8.64126C16.2502 9.53206 16.7506 10.7402 16.7506 12C16.7506 13.2598 16.2502 14.468 15.3594 15.3588C14.4686 16.2496 13.2604 16.75 12.0006 16.75C10.7408 16.75 9.53265 16.2496 8.64185 15.3588C7.75105 14.468 7.25061 13.2598 7.25061 12Z" fill="white"/>
</svg>
